<svg width="16" height="15" viewBox="0 0 16 15" fill="none" xmlns="http://www.w3.org/2000/svg">
<path d="M9.20625 0.046875C8.4 0.18457 7.68125 0.568359 7.22187 1.10449C6.9875 1.37988 6.72187 1.875 6.60938 2.24414C6.4625 2.72754 6.4375 3.03809 6.4375 4.38574V5.625H5.26562H4.09375V6.95801V8.29102H5.26562H6.4375V11.6455V15H7.875H9.3125V11.6455V8.29102L10.4281 8.28516L11.5469 8.27637L11.7063 7.06055C11.7969 6.39258 11.875 5.79492 11.8844 5.7334L11.9 5.625H10.6063H9.3125V4.57617C9.3125 3.42773 9.33437 3.25488 9.49062 2.98242C9.59063 2.80664 9.7875 2.66309 10.0156 2.59277C10.2406 2.52246 10.6688 2.49316 11.4625 2.49023H12.1562V1.29199V0.09375L11.9781 0.0761719C11.1281 -0.00878906 9.63125 -0.0263672 9.20625 0.046875Z" fill="white"/>
</svg>
