<svg width="14" height="15" viewBox="0 0 14 15" fill="none" xmlns="http://www.w3.org/2000/svg">
<path d="M2.81641 0.0615234C1.77188 0.295898 0.907812 0.981445 0.412891 1.96875C0.224219 2.34082 0.101172 2.72754 0.0273438 3.17578C0.0109375 3.29004 0 4.79004 0 7.50879C0 11.5928 0 11.6719 0.0574219 11.9619C0.207813 12.7588 0.560547 13.4473 1.09375 13.9834C1.58594 14.4785 2.15469 14.792 2.83555 14.9385C3.10625 15 3.18008 15 7 15C10.8199 15 10.8938 15 11.1645 14.9385C11.9082 14.7773 12.5508 14.3994 13.0512 13.8281C13.5133 13.3008 13.8059 12.6914 13.9426 11.9619C14 11.6719 14 11.5928 14 7.50879C14 4.79004 13.9891 3.29004 13.9727 3.17578C13.7758 1.95996 13.1086 0.966797 12.116 0.416016C11.7988 0.240234 11.5363 0.140625 11.1645 0.0615234C10.8938 0 10.8254 0 6.98086 0.00292969C3.19102 0.00292969 3.06797 0.00585938 2.81641 0.0615234ZM11.0605 1.3418C11.9191 1.59961 12.5234 2.25293 12.7477 3.16406L12.8105 3.41309V7.5V11.5869L12.7477 11.8359C12.5207 12.7529 11.9027 13.415 11.0469 13.6582L10.8145 13.7256H7H3.18555L2.95312 13.6582C2.09727 13.415 1.4793 12.7529 1.25234 11.8359L1.18945 11.5869V7.5V3.41309L1.25234 3.16406C1.4957 2.17676 2.19297 1.48535 3.12539 1.30371C3.28398 1.27148 4.08242 1.26562 7.08203 1.26855L10.8418 1.27441L11.0605 1.3418Z" fill="white"/>
<path d="M10.4699 2.5577C10.3824 2.59579 10.284 2.65438 10.2457 2.68661C9.81639 3.04696 9.79452 3.75009 10.1992 4.14266C10.3387 4.27743 10.4262 4.32431 10.6258 4.36532C11.025 4.45028 11.416 4.23641 11.591 3.84091C11.6922 3.60946 11.6922 3.24618 11.5965 3.03231C11.509 2.84774 11.3422 2.66903 11.1699 2.57821C10.9703 2.47274 10.675 2.46395 10.4699 2.5577Z" fill="white"/>
<path d="M6.3792 3.79395C5.87881 3.89356 5.30186 4.16016 4.90264 4.47949C4.63467 4.69336 4.26279 5.10645 4.096 5.37598C3.81982 5.82422 3.62295 6.34863 3.54092 6.84668C3.48896 7.18066 3.48896 7.81934 3.54092 8.15332C3.66123 8.87988 3.98115 9.55957 4.45693 10.0898C4.98193 10.6758 5.66006 11.0684 6.39014 11.2061C6.70186 11.2617 7.29795 11.2617 7.60967 11.2061C9.05068 10.9336 10.2046 9.69727 10.4589 8.15332C10.5108 7.81934 10.5108 7.18066 10.4589 6.84668C10.3769 6.3457 10.18 5.82422 9.90108 5.37598C9.73701 5.10645 9.3624 4.69043 9.10264 4.48242C8.68975 4.1543 8.11826 3.89063 7.60967 3.79395C7.31709 3.74121 6.65811 3.74121 6.3792 3.79395ZM7.56045 5.09766C8.38897 5.32617 9.02061 6 9.24483 6.89941C9.29131 7.08106 9.30498 7.21875 9.30498 7.5C9.30498 7.78125 9.29131 7.91895 9.24483 8.10059C9.02061 9 8.3999 9.66211 7.56045 9.90527C7.25147 9.99609 6.74834 9.99609 6.43936 9.90527C5.5999 9.66211 4.9792 9 4.75498 8.10059C4.67295 7.77246 4.67295 7.22754 4.75498 6.89941C5.08857 5.56055 6.33545 4.76074 7.56045 5.09766Z" fill="white"/>
</svg>
