<svg width="14" height="15" viewBox="0 0 14 15" fill="none" xmlns="http://www.w3.org/2000/svg">
<path d="M1.5092 0.820312C0.929514 0.984375 0.51389 1.47656 0.431859 2.09766C0.344359 2.79492 0.647874 3.42773 1.21662 3.7207C1.49006 3.86133 1.65139 3.89648 2.00686 3.89648C2.77521 3.89648 3.32482 3.50977 3.54357 2.8125C3.62287 2.56055 3.61467 2.07129 3.5217 1.79883C3.35217 1.2832 2.98303 0.93164 2.48264 0.805664C2.23654 0.74414 1.75803 0.75 1.5092 0.820312Z" fill="white"/>
<path d="M9.77539 4.96875C9.13008 5.12402 8.41914 5.61035 7.90781 6.25195L7.79297 6.39551V5.75977V5.12695H6.37109H4.94922V9.66797V14.209H6.37109H7.79297V11.5635C7.79297 10.002 7.80391 8.83594 7.82031 8.71582C7.86406 8.39355 8.02813 8.0625 8.28242 7.79004C8.59414 7.45605 8.88945 7.32422 9.32422 7.32422C10.0105 7.32422 10.4289 7.69336 10.6422 8.48438L10.7051 8.71582L10.7133 11.4609L10.7215 14.209H12.1406H13.5625V11.3818C13.5625 9.58301 13.5516 8.44922 13.5324 8.26758C13.4285 7.22754 13.1277 6.46289 12.5945 5.86523C12.2172 5.44336 11.7852 5.17969 11.2137 5.01855C10.9895 4.9541 10.8773 4.94238 10.459 4.93359C10.0844 4.9248 9.92031 4.93359 9.77539 4.96875Z" fill="white"/>
<path d="M0.574219 9.66797V14.209H1.99609H3.41797V9.66797V5.12695H1.99609H0.574219V9.66797Z" fill="white"/>
</svg>
