<svg width="14" height="16" viewBox="0 0 14 16" fill="none" xmlns="http://www.w3.org/2000/svg">
<path d="M13.1523 1.3564C13.084 1.37827 12.0012 1.85015 10.7461 2.40015C9.49102 2.95015 6.75391 4.14702 4.66211 5.06265C2.57031 5.97827 0.757422 6.77202 0.628906 6.8314C0.196875 7.0314 0 7.23765 0 7.50015C0 7.6689 0.0683594 7.77827 0.246094 7.88765C0.366406 7.96265 3.54648 9.1189 3.66406 9.1314C3.68594 9.13452 5.36758 7.94702 7.40195 6.49077C9.43359 5.03765 11.1371 3.82515 11.1863 3.7939C11.2957 3.7314 11.468 3.7189 11.5172 3.77515C11.5445 3.8064 11.5418 3.82827 11.5117 3.88765C11.4898 3.92827 10.1227 5.3439 8.47656 7.0314L5.48242 10.1033L5.38398 11.6845C5.3293 12.5533 5.27461 13.397 5.26641 13.5533L5.24727 13.8439H5.36758C5.58633 13.8439 5.71484 13.7283 6.61445 12.7439L7.46211 11.8158L9.08359 13.172C10.1527 14.0689 10.757 14.5533 10.8555 14.6001C10.9539 14.6439 11.0687 14.6689 11.1836 14.6689C11.4707 14.672 11.6402 14.5283 11.7824 14.1564C11.8098 14.0783 12.3238 11.4001 12.9199 8.20327C13.9891 2.47202 14.0055 2.38765 13.9945 2.09077C13.9863 1.82202 13.9754 1.77202 13.9016 1.63765C13.7566 1.3689 13.4504 1.25327 13.1523 1.3564Z" fill="white"/>
</svg>
