<svg width="14" height="15" viewBox="0 0 14 15" fill="none" xmlns="http://www.w3.org/2000/svg">
<path d="M4.89468 2.46105C3.46461 2.51086 2.45015 2.58996 1.97711 2.6925C1.38648 2.82141 0.902497 3.27844 0.716559 3.88195C0.508747 4.54699 0.377497 6.58605 0.434918 8.19445C0.500543 9.9464 0.629059 10.8224 0.888825 11.2413C1.19507 11.7364 1.58609 11.9796 2.24234 12.0821C3.40992 12.2638 6.38492 12.3487 8.8732 12.2755C10.8966 12.214 11.8947 12.1202 12.3185 11.9503C12.5236 11.8683 12.8271 11.631 12.9775 11.4347C13.2892 11.0275 13.3986 10.5441 13.5134 9.0968C13.5599 8.51086 13.5599 6.17004 13.5134 5.58117C13.4478 4.73156 13.3685 4.20422 13.2591 3.8468C13.1087 3.36047 12.6658 2.90344 12.1955 2.75402C11.8373 2.63684 11.0334 2.54894 9.78922 2.49035C8.93882 2.44934 5.8107 2.42883 4.89468 2.46105ZM7.37203 6.32238C8.25797 6.8673 9.00171 7.32726 9.02632 7.34191C9.06187 7.36242 8.68453 7.60558 7.40757 8.39367C6.49156 8.95617 5.72867 9.42199 5.715 9.42785C5.69586 9.43664 5.68765 8.71594 5.68765 7.36828C5.68765 5.62219 5.69312 5.29992 5.72593 5.31164C5.74507 5.32043 6.48609 5.77453 7.37203 6.32238Z" fill="white"/>
</svg>
